<svg width="102" height="50" viewBox="0 0 102 50" fill="none" xmlns="http://www.w3.org/2000/svg">
<path d="M41.5783 0L40.4918 0.0646589C29.2388 2.27476 25.8553 5.84802 21.9397 9.98414C21.2591 10.7018 20.5564 11.4438 19.7942 12.1964C15.9485 15.9943 6.72018 16.0484 2.7791 16.0717C1.31842 16.0802 0.882764 16.0887 0.591264 16.2063C-0.275816 16.5583 -0.600176 16.6897 3.8603 29.9853C5.95168 36.2202 8.17238 42.4954 8.19464 42.5569L8.31442 42.895L8.64938 43.0243C8.84866 43.0996 11.4117 44.06 14.9617 44.06C18.1798 44.0589 22.2057 43.2713 26.0122 40.3245C28.8424 38.1335 30.4557 35.7199 32.0171 33.3868C34.8388 29.1691 37.527 25.1824 47.0723 21.9812L58.0793 49.3875L58.1291 49.4384L61.1491 48.6932L41.5783 0ZM36.8263 2.51538L38.5424 6.16814L29.0894 10.6117L27.3711 6.95466C29.5886 5.22156 32.3817 3.73014 36.8263 2.51538ZM18.0092 15.2619L18.2244 15.7177L9.47406 19.8284L8.35152 17.4391C11.5368 17.1964 15.1588 16.6272 18.0092 15.2619ZM6.26014 32.2282C5.31356 29.4436 4.3956 26.6876 3.62816 24.3005L8.72782 21.9049L12.2555 29.4118L6.26014 32.2282ZM11.8442 42.2145L17.1082 39.7394L18.2413 42.1498C15.7546 42.6247 13.4862 42.4816 11.8442 42.2145ZM23.4523 25.0107L27.3117 33.2236L17.8576 37.666L17.1516 37.9978L13.6229 30.4909L13.4385 30.1114L14.1359 29.7489L23.4523 25.0107L19.4434 16.8678L19.0416 16.1883L19.967 15.7601L28.7152 11.6494L32.9075 20.5682L23.4523 25.0107ZM36.8952 25.3902L34.6491 20.6096L39.0237 18.5542L43.3972 16.4989L45.4579 20.8841C41.6673 22.2558 38.9611 23.7832 36.8952 25.3902Z" fill="#CBEECC"/>
<path d="M40.3423 48.6954L43.3622 49.4405L43.412 49.3897L54.4201 21.9834C63.9644 25.1846 66.6525 29.1702 69.4743 33.389C71.0346 35.722 72.649 38.1356 75.4792 40.3267C79.2846 43.2735 83.3115 44.061 86.5297 44.0621C90.0796 44.0621 92.6427 43.1028 92.8409 43.0265L93.1759 42.8972L93.2946 42.559C93.3168 42.4965 95.5375 36.2213 97.63 29.9874C102.09 16.6918 101.766 16.5604 100.899 16.2085C100.608 16.0898 100.172 16.0823 98.7112 16.0739C94.7701 16.0505 85.5417 15.9965 81.695 12.1985C80.9329 11.4459 80.229 10.7039 79.5506 9.98628C75.6339 5.8491 72.2493 2.2769 60.9974 0.0667971L59.9109 0.00213623L40.3423 48.6954ZM74.1171 6.95468L72.3988 10.6117L62.9447 6.16816L64.6608 2.5154C69.1054 3.73016 71.8985 5.22158 74.1171 6.95468ZM93.1356 17.4402L92.012 19.8294L83.2627 15.7188L83.4769 15.263C86.3283 16.6272 89.9503 17.1964 93.1356 17.4402ZM89.2337 29.4108L92.7614 21.9039L97.8611 24.2995C97.0915 26.6866 96.1746 29.4426 95.2291 32.2272L89.2337 29.4108ZM83.2458 42.1509L84.3779 39.7405L89.6429 42.2156C88.002 42.4816 85.7336 42.6247 83.2458 42.1509ZM68.5807 20.5683L72.7719 11.6494L81.5212 15.7601L82.4455 16.1883L82.0438 16.8678L78.0348 25.0107L87.3512 29.7489L88.0486 30.1114L87.8642 30.4909L84.3365 37.9978L83.6306 37.6661L74.1764 33.2236L78.0348 25.0107L68.5807 20.5683ZM56.0292 20.8831L58.0899 16.4979L62.4634 18.5532L66.8391 20.6085L64.593 25.3891C62.526 23.7832 59.8208 22.2558 56.0292 20.8831Z" fill="#CBEECC"/>
</svg>
